<?xml version="1.0" encoding="utf-8"?>
<svg version="1.1" xmlns="http://www.w3.org/2000/svg" viewBox="370 -85 174 21" fill="currentColor">
	<g>
		<path d="M384.6-82.4c1.4,0.7,2.5,1.8,3.3,3.1s1.2,2.9,1.2,4.6c0,1.7-0.4,3.2-1.2,4.6c-0.8,1.3-1.9,2.4-3.3,3.1
			c-1.4,0.7-3.1,1.1-4.9,1.1h-7.3v-17.6h7.5C381.6-83.5,383.2-83.1,384.6-82.4z M382.5-69.9c0.8-0.5,1.4-1.1,1.8-1.9
			c0.4-0.8,0.7-1.8,0.7-2.8c0-1.1-0.2-2-0.7-2.8c-0.5-0.8-1.1-1.5-1.9-2c-0.8-0.5-1.7-0.7-2.7-0.7h-3.4v10.9h3.6
			C380.8-69.2,381.7-69.4,382.5-69.9z"/>
		<path d="M408.7-65.8l-1.4-3.4h-8.2l-1.4,3.4h-4.1l7.7-17.6h4.1l7.5,17.6H408.7z M400.5-72.5h5.6l-2.8-6.9L400.5-72.5z"/>
		<path d="M419.4-83.5h13.4v3.3h-9.5v3.8h8.5v3.3h-8.5v3.9h9.7v3.3h-13.7L419.4-83.5L419.4-83.5z"/>
		<path d="M453-82.4c1.4,0.7,2.5,1.8,3.3,3.1c0.8,1.3,1.2,2.9,1.2,4.6c0,1.7-0.4,3.2-1.2,4.6c-0.8,1.3-1.9,2.4-3.3,3.1
			c-1.4,0.7-3.1,1.1-4.9,1.1h-7.3v-17.6h7.5C450-83.5,451.6-83.1,453-82.4z M451-69.9c0.8-0.5,1.4-1.1,1.8-1.9
			c0.4-0.8,0.7-1.8,0.7-2.8c0-1.1-0.2-2-0.7-2.8c-0.5-0.8-1.1-1.5-1.9-2c-0.8-0.5-1.7-0.7-2.7-0.7h-3.4v10.9h3.6
			C449.3-69.2,450.2-69.4,451-69.9z"/>
		<path d="M477.2-65.8l-1.4-3.4h-8.2l-1.4,3.4h-4.1l7.7-17.6h4.1l7.5,17.6H477.2z M469-72.5h5.6l-2.8-6.9L469-72.5z"/>
		<path d="M487.9-83.5h4v14.2h7.6v3.5h-11.5V-83.5z"/>
		<path d="M511.1-70.1c0.7,0.7,1.7,1.1,2.9,1.1c1.2,0,2.1-0.4,2.8-1.1c0.7-0.7,1-1.7,1-3v-10.4h4v10.4
			c0,1.5-0.3,2.9-0.9,4c-0.6,1.1-1.5,2-2.7,2.6s-2.6,0.9-4.2,0.9c-1.6,0-3-0.3-4.2-0.9c-1.2-0.6-2.1-1.5-2.7-2.6c-0.6-1.1-1-2.5-1-4
			v-10.4h4v10.4C510-71.9,510.3-70.9,511.1-70.1z"/>
		<path d="M538.6-79.9c-1-0.3-1.9-0.5-2.6-0.5c-0.7,0-1.2,0.1-1.6,0.4s-0.6,0.6-0.6,1.1c0,0.6,0.3,1.1,0.9,1.4
			c0.6,0.3,1.5,0.7,2.7,1c1.2,0.4,2.2,0.7,3,1.1s1.4,0.9,2,1.6c0.6,0.7,0.8,1.6,0.8,2.8c0,1.1-0.3,2.1-0.9,2.9
			c-0.6,0.8-1.4,1.4-2.5,1.9c-1,0.4-2.2,0.6-3.6,0.6c-1.4,0-2.8-0.3-4.2-0.8c-1.4-0.5-2.6-1.2-3.6-2.1l1.6-3.3
			c0.9,0.8,1.9,1.5,3.1,1.9c1.2,0.5,2.2,0.7,3.2,0.7c0.8,0,1.5-0.2,1.9-0.5s0.7-0.7,0.7-1.3c0-0.5-0.2-0.8-0.5-1.1
			c-0.3-0.3-0.7-0.5-1.2-0.7s-1.1-0.4-2-0.6c-1.2-0.3-2.2-0.7-3-1c-0.8-0.3-1.4-0.8-2-1.5c-0.6-0.7-0.8-1.6-0.8-2.7
			c0-1.1,0.3-2,0.9-2.8c0.6-0.8,1.4-1.4,2.4-1.8c1-0.4,2.2-0.6,3.6-0.6c1.2,0,2.4,0.2,3.6,0.5c1.2,0.4,2.2,0.8,3.1,1.4l-1.5,3.3
			C540.5-79.1,539.6-79.6,538.6-79.9z"/>
	</g>
</svg>
