<?xml version="1.0" encoding="utf-8"?>
<!-- Generator: Adobe Illustrator 21.1.0, SVG Export Plug-In . SVG Version: 6.00 Build 0)  -->
<svg version="1.1" id="Layer_1" xmlns="http://www.w3.org/2000/svg" xmlns:xlink="http://www.w3.org/1999/xlink" x="0px" y="0px"
	 viewBox="0 0 87 67.9" style="enable-background:new 0 0 87 67.9;" xml:space="preserve">
<style type="text/css">
	.st0{fill:#C8C8C8;}
	.st1{fill:#82FF65;}
</style>
<g>
	<g>
		<path class="st0" d="M384.6-82.4c1.4,0.7,2.5,1.8,3.3,3.1s1.2,2.9,1.2,4.6c0,1.7-0.4,3.2-1.2,4.6c-0.8,1.3-1.9,2.4-3.3,3.1
			c-1.4,0.7-3.1,1.1-4.9,1.1h-7.3v-17.6h7.5C381.6-83.5,383.2-83.1,384.6-82.4z M382.5-69.9c0.8-0.5,1.4-1.1,1.8-1.9
			c0.4-0.8,0.7-1.8,0.7-2.8c0-1.1-0.2-2-0.7-2.8c-0.5-0.8-1.1-1.5-1.9-2c-0.8-0.5-1.7-0.7-2.7-0.7h-3.4v10.9h3.6
			C380.8-69.2,381.7-69.4,382.5-69.9z"/>
		<path class="st0" d="M408.7-65.8l-1.4-3.4h-8.2l-1.4,3.4h-4.1l7.7-17.6h4.1l7.5,17.6H408.7z M400.5-72.5h5.6l-2.8-6.9L400.5-72.5z
			"/>
		<path class="st0" d="M419.4-83.5h13.4v3.3h-9.5v3.8h8.5v3.3h-8.5v3.9h9.7v3.3h-13.7L419.4-83.5L419.4-83.5z"/>
		<path class="st0" d="M453-82.4c1.4,0.7,2.5,1.8,3.3,3.1c0.8,1.3,1.2,2.9,1.2,4.6c0,1.7-0.4,3.2-1.2,4.6c-0.8,1.3-1.9,2.4-3.3,3.1
			c-1.4,0.7-3.1,1.1-4.9,1.1h-7.3v-17.6h7.5C450-83.5,451.6-83.1,453-82.4z M451-69.9c0.8-0.5,1.4-1.1,1.8-1.9
			c0.4-0.8,0.7-1.8,0.7-2.8c0-1.1-0.2-2-0.7-2.8c-0.5-0.8-1.1-1.5-1.9-2c-0.8-0.5-1.7-0.7-2.7-0.7h-3.4v10.9h3.6
			C449.3-69.2,450.2-69.4,451-69.9z"/>
		<path class="st0" d="M477.2-65.8l-1.4-3.4h-8.2l-1.4,3.4h-4.1l7.7-17.6h4.1l7.5,17.6H477.2z M469-72.5h5.6l-2.8-6.9L469-72.5z"/>
		<path class="st0" d="M487.9-83.5h4v14.2h7.6v3.5h-11.5V-83.5z"/>
		<path class="st0" d="M511.1-70.1c0.7,0.7,1.7,1.1,2.9,1.1c1.2,0,2.1-0.4,2.8-1.1c0.7-0.7,1-1.7,1-3v-10.4h4v10.4
			c0,1.5-0.3,2.9-0.9,4c-0.6,1.1-1.5,2-2.7,2.6s-2.6,0.9-4.2,0.9c-1.6,0-3-0.3-4.2-0.9c-1.2-0.6-2.1-1.5-2.7-2.6c-0.6-1.1-1-2.5-1-4
			v-10.4h4v10.4C510-71.9,510.3-70.9,511.1-70.1z"/>
		<path class="st0" d="M538.6-79.9c-1-0.3-1.9-0.5-2.6-0.5c-0.7,0-1.2,0.1-1.6,0.4s-0.6,0.6-0.6,1.1c0,0.6,0.3,1.1,0.9,1.4
			c0.6,0.3,1.5,0.7,2.7,1c1.2,0.4,2.2,0.7,3,1.1s1.4,0.9,2,1.6c0.6,0.7,0.8,1.6,0.8,2.8c0,1.1-0.3,2.1-0.9,2.9
			c-0.6,0.8-1.4,1.4-2.5,1.9c-1,0.4-2.2,0.6-3.6,0.6c-1.4,0-2.8-0.3-4.2-0.8c-1.4-0.5-2.6-1.2-3.6-2.1l1.6-3.3
			c0.9,0.8,1.9,1.5,3.1,1.9c1.2,0.5,2.2,0.7,3.2,0.7c0.8,0,1.5-0.2,1.9-0.5s0.7-0.7,0.7-1.3c0-0.5-0.2-0.8-0.5-1.1
			c-0.3-0.3-0.7-0.5-1.2-0.7s-1.1-0.4-2-0.6c-1.2-0.3-2.2-0.7-3-1c-0.8-0.3-1.4-0.8-2-1.5c-0.6-0.7-0.8-1.6-0.8-2.7
			c0-1.1,0.3-2,0.9-2.8c0.6-0.8,1.4-1.4,2.4-1.8c1-0.4,2.2-0.6,3.6-0.6c1.2,0,2.4,0.2,3.6,0.5c1.2,0.4,2.2,0.8,3.1,1.4l-1.5,3.3
			C540.5-79.1,539.6-79.6,538.6-79.9z"/>
	</g>
	<g id="Page-1_6_">
		<g id="full_6_">
			<path id="Combined-Shape_6_" class="st1" d="M306.6-46.8l-4.6-0.7l-2.4-6.8l1.7-0.2l1.9,5.4l3.4,0.6c0.1-0.6,0.4-1.2,0.7-1.7
				c0.5-0.8,1.2-1.4,2-1.8v-1.5c-3.5-0.7-6.6-2.5-8.9-5c-0.3-0.4-0.6-0.7-0.9-1.1l1.5-0.8c0.2,0.3,0.4,0.6,0.6,0.8
				c1.7,2,4.1,3.5,6.7,4.2c0.8,0.3,1.7,0.5,2.6,0.6v8.8l-2.7-0.4c0.2,0.7,0.5,1.3,1,1.8c0.7,0.7,1.6,1.1,2.6,1.1
				c1,0,1.9-0.4,2.6-1.1c0.5-0.5,0.8-1.1,1-1.7L313-46v-8.8c0.9-0.1,1.8-0.3,2.6-0.6c2.6-0.7,4.9-2.2,6.7-4.2
				c0.2-0.3,0.4-0.5,0.7-0.8l1.5,0.8c-0.3,0.4-0.6,0.8-0.9,1.1c-2.2,2.6-5.4,4.4-8.9,5v1.6c0.7,0.4,1.3,1,1.8,1.6
				c0.4,0.6,0.6,1.2,0.8,1.9l3.6-0.6l1.9-5.4l1.7,0.2l-2.4,6.8l-4.7,0.8c-0.1,1.3-0.7,2.4-1.5,3.2c-1,1-2.3,1.6-3.8,1.6
				c-1.5,0-2.8-0.6-3.8-1.6C307.3-44.4,306.8-45.5,306.6-46.8z M309.5-50c-0.2,0.2-0.4,0.4-0.6,0.7c-0.2,0.3-0.4,0.7-0.5,1.1l1,0.2
				V-50z M315.5-48.2c-0.1-0.4-0.3-0.8-0.5-1.2c-0.1-0.2-0.2-0.3-0.4-0.5v1.8L315.5-48.2z M341.8-109.9l13.7,18.2l-15.4,16.4
				l-8.7-2.3l-0.5,3.4l-2.2,0.3c-0.4-2.2-1.4-4.3-2.7-6.1l1.2-1.1c1,1.3,1.7,2.7,2.3,4.2l0.4-2.8l9.6,2.6l13.7-14.7l-8.1-10.8
				l4.1,8.9l-9.3,9l-1.7-0.7l1.3-1.3l0.3-0.3l0.9-0.9v0l6.4-6.2l-6.9-15L341.8-109.9z M314.6-85.5l5.2-4.8l2.3,0.1l-1.7,1.6
				l-1.6,1.5c1.8,0.6,3.5,1.4,5,2.5l-1.2,1.2c-1.5-1.1-3.3-1.9-5.2-2.4l-0.7,0.7C316.1-85.2,315.3-85.4,314.6-85.5z M324.3-90
				L324.3-90l9.1,0.5l4.7,2.1l-1.3,1.3l-3.8-1.7l-1-0.1l-5,4.9l-1.9,1.8c-0.4-0.4-0.8-0.8-1.2-1.2l1.2-1.2c0,0,0,0,0,0l0.9-0.9l0,0
				l3.6-3.6l-6.9-0.4L324.3-90z M313-78.2v-5.7c0.5,0,1.1,0.1,1.7,0.2v1.7h0v2.6c1.4,0.4,2.7,1,3.8,1.9l2-1.8
				c-1.2-1-2.6-1.7-4.1-2.2v-1.8c2.5,0.8,4.8,2.2,6.6,4l-2.7,2.5v0l-0.5,0.5c0.9,0.9,1.6,1.9,2.1,3c0.1,0.1,0.1,0.2,0.2,0.4
				l-1.5,0.7c-0.1-0.1-0.1-0.2-0.1-0.3c-0.9-2-2.5-3.6-4.5-4.5C314.9-77.7,313.9-78,313-78.2z M322.8-77l1.2-1.1
				c1.4,1.8,2.5,4,3,6.3l2.1-0.3v0l1.7-0.3l-1.3,9.3l-4.1,6l-0.4,1.2l-1.7-0.1l0.6-1.8l4-5.9l0.9-6.6l-0.8,0.1v0l-2.4,0.4l-2.7,0.4
				c0,0.3,0,0.6,0,0.8c0,1.4-0.2,2.8-0.7,4l2.4,1.2c0.6-1.5,1-3.1,1.1-4.8l1.7-0.3c0,2.7-0.7,5.2-2,7.3l-3.8-2l-0.1-0.1
				c-0.3,0.6-0.7,1.1-1.1,1.6c-1.4,1.7-3.4,3.1-5.7,3.7v0.9c-0.5,0.2-1.1,0.3-1.7,0.4v-19.9c0.6,0.1,1.1,0.3,1.7,0.5v16.3
				c1.7-0.6,3.3-1.6,4.4-3c1.4-1.7,2.2-3.8,2.2-6.1v-0.6l-2.5,0.4v4.3h-1.7v-5.8l8.2-1.3C324.9-73.6,324-75.4,322.8-77z
				 M282.3-109.9l1.4,0.9l-6.9,15l6.4,6.2l0,0l0.9,0.9l0.3,0.3l1.3,1.3l-1.7,0.7l-9.3-9l4.1-8.9l-8.1,10.8l13.7,14.7l9.6-2.6
				l0.4,2.8c0.6-1.5,1.4-2.9,2.3-4.2l1.2,1.1c-1.3,1.8-2.2,3.9-2.7,6.1l-2.2-0.3l-0.5-3.4l-8.7,2.3l-15.3-16.4L282.3-109.9z
				 M302-90.2l2.3-0.1l5.2,4.8c-0.7,0.1-1.5,0.2-2.1,0.4l-0.7-0.7c-1.9,0.5-3.6,1.3-5.2,2.4l-1.2-1.2c1.5-1.1,3.2-1.9,5-2.5
				l-1.6-1.5L302-90.2z M290.7-89.5l9.2-0.5l-0.1,0.1l1.6,1.5l-7,0.4l3.6,3.6l0,0l0.9,0.9c0,0,0,0,0,0l1.2,1.2
				c-0.4,0.4-0.8,0.7-1.2,1.2l-1.9-1.8l-5-4.9l-1,0.1l-3.8,1.7l-1.3-1.3L290.7-89.5z M308.6-83.6c0.7-0.1,1.8-0.2,2.5-0.3v23
				c-0.6-0.1-1.1-0.3-1.7-0.5v-15.3v-3v-2.4c-2.2,0.4-4.1,1.4-5.8,2.7l2,1.8c0.7-0.5,1.4-0.9,2.1-1.3v1.9c-1.8,1-3.3,2.6-4.1,4.6
				l-1.5-0.7c0.5-1.3,1.3-2.4,2.3-3.4l-0.5-0.5l0,0l-2.7-2.5C303.2-81.5,305.7-82.9,308.6-83.6z M297.1-71.8c0.5-2.4,1.5-4.5,3-6.3
				l1.2,1.1c-1.2,1.6-2.1,3.4-2.5,5.4l8.2,1.3v5.8h-1.7v-4.3l-2.5-0.4c0,0.2,0,0.4,0,0.6c0,2.3,0.8,4.4,2.2,6.1
				c0.9,1.1,2,1.9,3.3,2.5v0c0.1,0.1,0.2,0.1,0.3,0.2c0.1,0,0.2,0.1,0.3,0.1c0.1,0,0.2,0.1,0.3,0.1c0.1,0,0.1,0,0.2,0.1v0
				c0.5,0.2,1.1,0.3,1.7,0.4v2.6c-0.6-0.1-1.1-0.2-1.7-0.4v-0.9c-2.3-0.6-4.2-1.9-5.7-3.7c-0.4-0.5-0.8-1-1.1-1.6l-0.1,0.1l-3.8,2
				c-1.2-2.2-1.9-4.7-2-7.3l1.7,0.3c0.1,1.7,0.4,3.3,1,4.8l2.4-1.2c-0.5-1.3-0.7-2.6-0.7-4c0-0.3,0-0.6,0-0.8l-2.7-0.4l-2.4-0.4v0
				l-0.8-0.1l0.9,6.6l4,5.9l0.6,1.8l-1.7,0.1l-0.4-1.2l-4.1-6l-1.3-9.3l1.7,0.3l0,0L297.1-71.8z"/>
		</g>
	</g>
</g>
<g id="Page-1_1_">
	<g id="full_1_">
		<path id="Combined-Shape_1_" class="st1" d="M38.1,63.1l-4.6-0.7l-2.4-6.8l1.7-0.2l1.9,5.4l3.4,0.6c0.1-0.6,0.4-1.2,0.7-1.7
			c0.5-0.8,1.2-1.4,2-1.8v-1.5c-3.5-0.7-6.6-2.5-8.9-5c-0.3-0.4-0.6-0.7-0.9-1.1l1.5-0.8c0.2,0.3,0.4,0.6,0.6,0.8
			c1.7,2,4.1,3.5,6.7,4.2c0.8,0.3,1.7,0.5,2.6,0.6v8.8l-2.7-0.4c0.2,0.7,0.5,1.3,1,1.8c0.7,0.7,1.6,1.1,2.6,1.1c1,0,1.9-0.4,2.6-1.1
			c0.5-0.5,0.8-1.1,1-1.7l-2.6,0.4V55c0.9-0.1,1.8-0.3,2.6-0.6c2.6-0.7,4.9-2.2,6.7-4.2c0.2-0.3,0.4-0.5,0.7-0.8l1.5,0.8
			c-0.3,0.4-0.6,0.8-0.9,1.1c-2.2,2.6-5.4,4.4-8.9,5V58c0.7,0.4,1.3,1,1.8,1.6c0.4,0.6,0.6,1.2,0.8,1.9l3.6-0.6l1.9-5.4l1.7,0.2
			l-2.4,6.8l-4.7,0.8c-0.1,1.3-0.7,2.4-1.5,3.2c-1,1-2.3,1.6-3.8,1.6c-1.5,0-2.8-0.6-3.8-1.6C38.8,65.5,38.2,64.4,38.1,63.1z
			 M40.9,59.9c-0.2,0.2-0.4,0.4-0.6,0.7c-0.2,0.3-0.4,0.7-0.5,1.1l1,0.2V59.9z M46.9,61.7c-0.1-0.4-0.3-0.8-0.5-1.2
			c-0.1-0.2-0.2-0.3-0.4-0.5v1.8L46.9,61.7z M73.3,0L87,18.2L71.6,34.6l-8.7-2.3l-0.5,3.4l-2.2,0.3c-0.4-2.2-1.4-4.3-2.7-6.1
			l1.2-1.1c1,1.3,1.7,2.7,2.3,4.2l0.4-2.8l9.6,2.6l13.7-14.7L76.7,7.3l4.1,8.9l-9.3,9l-1.7-0.7l1.3-1.3l0.3-0.3l0.9-0.9v0l6.4-6.2
			l-6.9-15L73.3,0z M46,24.4l5.2-4.8l2.3,0.1l-1.7,1.6l-1.6,1.5c1.8,0.6,3.5,1.4,5,2.5L54,26.5c-1.5-1.1-3.3-1.9-5.2-2.4l-0.7,0.7
			C47.6,24.7,46.8,24.5,46,24.4z M55.7,19.9L55.7,19.9l9.1,0.5l4.7,2.1l-1.3,1.3l-3.8-1.7l-1-0.1l-5,4.9l-1.9,1.8
			c-0.4-0.4-0.8-0.8-1.2-1.2l1.2-1.2c0,0,0,0,0,0l0.9-0.9l0,0l3.6-3.6l-6.9-0.4L55.7,19.9z M44.4,31.7V26c0.5,0,1.1,0.1,1.7,0.2v1.7
			h0v2.6c1.4,0.4,2.7,1,3.8,1.9l2-1.8c-1.2-1-2.6-1.7-4.1-2.2v-1.8c2.5,0.8,4.8,2.2,6.6,4L51.7,33v0l-0.5,0.5c0.9,0.9,1.6,1.9,2.1,3
			c0.1,0.1,0.1,0.2,0.2,0.4l-1.5,0.7c-0.1-0.1-0.1-0.2-0.1-0.3c-0.9-2-2.5-3.6-4.5-4.5C46.3,32.2,45.4,31.9,44.4,31.7z M54.2,32.9
			l1.2-1.1c1.4,1.8,2.5,4,3,6.3l2.1-0.3v0l1.7-0.3l-1.3,9.3l-4.1,6L56.4,54l-1.7-0.1l0.6-1.8l4-5.9l0.9-6.6l-0.8,0.1v0L57,40
			l-2.7,0.4c0,0.3,0,0.6,0,0.8c0,1.4-0.2,2.8-0.7,4l2.4,1.2c0.6-1.5,1-3.1,1.1-4.8l1.7-0.3c0,2.7-0.7,5.2-2,7.3l-3.8-2l-0.1-0.1
			c-0.3,0.6-0.7,1.1-1.1,1.6c-1.4,1.7-3.4,3.1-5.7,3.7V53c-0.5,0.2-1.1,0.3-1.7,0.4V33.4c0.6,0.1,1.1,0.3,1.7,0.5v16.3
			c1.7-0.6,3.3-1.6,4.4-3c1.4-1.7,2.2-3.8,2.2-6.1v-0.6l-2.5,0.4v4.3h-1.7v-5.8l8.2-1.3C56.3,36.3,55.4,34.5,54.2,32.9z M13.7,0
			l1.4,0.9l-6.9,15l6.4,6.2l0,0l0.9,0.9l0.3,0.3l1.3,1.3l-1.7,0.7l-9.3-9l4.1-8.9L2.2,18.1l13.7,14.7l9.6-2.6l0.4,2.8
			c0.6-1.5,1.4-2.9,2.3-4.2l1.2,1.1c-1.3,1.8-2.2,3.9-2.7,6.1l-2.2-0.3l-0.5-3.4l-8.7,2.3L0,18.2L13.7,0z M33.4,19.7l2.3-0.1
			l5.2,4.8c-0.7,0.1-1.5,0.2-2.1,0.4l-0.7-0.7c-1.9,0.5-3.6,1.3-5.2,2.4l-1.2-1.2c1.5-1.1,3.2-1.9,5-2.5l-1.6-1.5L33.4,19.7z
			 M22.2,20.4l9.2-0.5l-0.1,0.1l1.6,1.5l-7,0.4l3.6,3.6l0,0l0.9,0.9c0,0,0,0,0,0l1.2,1.2c-0.4,0.4-0.8,0.7-1.2,1.2l-1.9-1.8l-5-4.9
			l-1,0.1l-3.8,1.7l-1.3-1.3L22.2,20.4z M40,26.3c0.7-0.1,1.8-0.2,2.5-0.3v23c-0.6-0.1-1.1-0.3-1.7-0.5V33.2v-3v-2.4
			c-2.2,0.4-4.1,1.4-5.8,2.7l2,1.8c0.7-0.5,1.4-0.9,2.1-1.3v1.9c-1.8,1-3.3,2.6-4.1,4.6l-1.5-0.7c0.5-1.3,1.3-2.4,2.3-3.4L35.3,33
			l0,0l-2.7-2.5C34.6,28.5,37.2,27,40,26.3z M28.6,38.1c0.5-2.4,1.5-4.5,3-6.3l1.2,1.1c-1.2,1.6-2.1,3.4-2.5,5.4l8.2,1.3v5.8h-1.7
			v-4.3l-2.5-0.4c0,0.2,0,0.4,0,0.6c0,2.3,0.8,4.4,2.2,6.1c0.9,1.1,2,1.9,3.3,2.5v0c0.1,0.1,0.2,0.1,0.3,0.2c0.1,0,0.2,0.1,0.3,0.1
			c0.1,0,0.2,0.1,0.3,0.1c0.1,0,0.1,0,0.2,0.1v0c0.5,0.2,1.1,0.3,1.7,0.4v2.6c-0.6-0.1-1.1-0.2-1.7-0.4v-0.9
			c-2.3-0.6-4.2-1.9-5.7-3.7c-0.4-0.5-0.8-1-1.1-1.6L34,46.8l-3.8,2c-1.2-2.2-1.9-4.7-2-7.3l1.7,0.3c0.1,1.7,0.4,3.3,1,4.8l2.4-1.2
			c-0.5-1.3-0.7-2.6-0.7-4c0-0.3,0-0.6,0-0.8L30,40l-2.4-0.4v0l-0.8-0.1l0.9,6.6l4,5.9l0.6,1.8L30.6,54l-0.4-1.2l-4.1-6l-1.3-9.3
			l1.7,0.3l0,0L28.6,38.1z"/>
	</g>
</g>
</svg>
