<svg xmlns="http://www.w3.org/2000/svg" width="105" height="30" viewBox="0 0 105 30" fill="none">
  <path d="M15.3262 17.0112C15.3262 17.0112 13.1521 22.0921 9.0957 24.3809C10.8091 26.2498 12.8628 28.0904 15.3262 29.8264C17.7893 28.0904 19.843 26.2498 21.557 24.3809C17.5003 22.0921 15.3262 17.0112 15.3262 17.0112Z" fill="#01193C"/>
  <path d="M15.3263 5.68164C13.3537 9.94882 7.89812 12.9425 2.70459 14.3168C3.63992 16.6331 4.97312 19.1463 6.86086 21.6758L8.10835 18.0094C10.9673 16.3059 14.0279 14.4242 15.3263 11.6147C15.3257 11.6147 15.3269 11.6147 15.3263 11.6147C16.6248 14.4242 19.685 16.3059 22.5445 18.0094L23.7918 21.6758C25.6795 19.1463 27.0127 16.6331 27.948 14.3168C22.7542 12.9427 17.2989 9.94882 15.3263 5.68164Z" fill="#01193C"/>
  <path d="M30.1446 3.53725C30.1446 3.53725 23.478 0.173828 15.3265 0.173828V0.174407L15.3256 0.173828C7.17404 0.173828 0.507727 3.53725 0.507727 3.53725C0.507727 3.53725 0.322688 6.92557 1.76362 11.6621L4.19055 7.83715C8.66535 6.54883 13.1465 4.67904 15.3259 1.29941C17.5055 4.67904 21.9864 6.54883 26.4612 7.83715L28.8884 11.6621C30.3296 6.92557 30.1443 3.53725 30.1443 3.53725H30.1446Z" fill="#01193C"/>
  <path d="M102.288 24.2522V6.49219H104.76V24.2522H102.288Z" fill="#01193C"/>
  <path d="M96.1481 24.252V11.652H98.6201V24.252H96.1481ZM97.3481 8.86805C96.8201 8.86805 96.4121 8.73205 96.1241 8.46005C95.8361 8.18805 95.6921 7.80405 95.6921 7.30805C95.6921 6.84405 95.8361 6.46805 96.1241 6.18005C96.4281 5.89205 96.8361 5.74805 97.3481 5.74805C97.8761 5.74805 98.2841 5.88405 98.5721 6.15605C98.8601 6.42805 99.0041 6.81205 99.0041 7.30805C99.0041 7.77205 98.8521 8.14805 98.5481 8.43605C98.2601 8.72405 97.8601 8.86805 97.3481 8.86805Z" fill="#01193C"/>
  <path d="M86.2405 24.2522V11.6522H88.7365V15.6122L88.4965 14.6522C88.6725 14.0442 88.9685 13.4922 89.3845 12.9962C89.8165 12.5002 90.3045 12.1082 90.8485 11.8202C91.4085 11.5322 91.9845 11.3882 92.5765 11.3882C92.8485 11.3882 93.1045 11.4122 93.3445 11.4602C93.6005 11.5082 93.8005 11.5642 93.9445 11.6282L93.2965 14.3162C93.1045 14.2362 92.8885 14.1722 92.6485 14.1242C92.4245 14.0602 92.2005 14.0282 91.9765 14.0282C91.5445 14.0282 91.1285 14.1162 90.7285 14.2922C90.3445 14.4522 90.0005 14.6842 89.6965 14.9882C89.4085 15.2762 89.1765 15.6202 89.0005 16.0202C88.8245 16.4042 88.7365 16.8282 88.7365 17.2922V24.2522H86.2405Z" fill="#01193C"/>
  <path d="M72.147 24.2522V6.49219H74.619V14.2442L74.187 14.5322C74.347 13.9722 74.659 13.4602 75.123 12.9962C75.587 12.5162 76.139 12.1322 76.779 11.8442C77.419 11.5402 78.075 11.3882 78.747 11.3882C79.707 11.3882 80.507 11.5802 81.147 11.9642C81.787 12.3322 82.267 12.9002 82.587 13.6682C82.907 14.4362 83.067 15.4042 83.067 16.5722V24.2522H80.595V16.7402C80.595 16.0202 80.499 15.4282 80.307 14.9642C80.115 14.4842 79.819 14.1402 79.419 13.9322C79.019 13.7082 78.523 13.6122 77.931 13.6442C77.451 13.6442 77.011 13.7242 76.611 13.8842C76.211 14.0282 75.859 14.2362 75.555 14.5082C75.267 14.7802 75.035 15.1002 74.859 15.4682C74.699 15.8202 74.619 16.2042 74.619 16.6202V24.2522H73.395C73.187 24.2522 72.979 24.2522 72.771 24.2522C72.563 24.2522 72.355 24.2522 72.147 24.2522Z" fill="#01193C"/>
  <path d="M64.6761 24.252V8.43604H67.1481V24.252H64.6761ZM62.0601 14.052V11.652H70.0761V14.052H62.0601Z" fill="#01193C"/>
  <path d="M57.0244 24.252V11.652H59.4964V24.252H57.0244ZM58.2244 8.86805C57.6964 8.86805 57.2884 8.73205 57.0004 8.46005C56.7124 8.18805 56.5684 7.80405 56.5684 7.30805C56.5684 6.84405 56.7124 6.46805 57.0004 6.18005C57.3044 5.89205 57.7124 5.74805 58.2244 5.74805C58.7524 5.74805 59.1604 5.88405 59.4484 6.15605C59.7364 6.42805 59.8804 6.81205 59.8804 7.30805C59.8804 7.77205 59.7284 8.14805 59.4244 8.43605C59.1364 8.72405 58.7364 8.86805 58.2244 8.86805Z" fill="#01193C"/>
  <path d="M36.6782 24.2521V7.45215H39.2222L45.3422 17.4121L44.1182 17.3881L50.3102 7.45215H52.7102V24.2521H50.1182V17.3641C50.1182 15.9241 50.1502 14.6281 50.2142 13.4761C50.2942 12.3241 50.4222 11.1801 50.5982 10.0441L50.9342 10.9321L45.4382 19.4282H43.8542L38.5262 11.0281L38.7902 10.0441C38.9662 11.1161 39.0862 12.2201 39.1502 13.3561C39.2302 14.4761 39.2702 15.8121 39.2702 17.3641V24.2521H36.6782Z" fill="#01193C"/>
</svg>