<?xml version="1.0" encoding="UTF-8" standalone="no"?>
<svg
        width="720"
        zoomAndPan="magnify"
        viewBox="0 0 540 540"
        height="720"
        preserveAspectRatio="xMidYMid"
        version="1.0"
        id="svg97"
        xmlns="http://www.w3.org/2000/svg"
>
    <style>
        g {
        fill: black;
        stroke: white;
        stroke-width: 4px;
        }

        @media (prefers-color-scheme: dark) {
        g {
        fill: white;
        stroke: black;
        stroke-width: 4px;
        }
        }
    </style>
    <defs
            id="defs57"/>
    <g
            id="layer1">
        <path
                id="path59"
                style="display:inline"
                d="M 681.98842,14.242692 V 608.94004 c 22.15026,-48.14815 58.2546,-103.83766 114.69411,-136.62557 114.76592,-66.69029 270.00497,-13.37496 270.00497,-13.37496 0,0 -32.2362,158.96538 -147.00213,225.64285 -83.35317,48.43245 -187.04307,34.85614 -237.69695,23.79213 v 387.81601 c 15.59254,-36.5352 42.58541,-81.5678 86.7518,-107.22571 83.04236,-48.24786 195.31282,-9.74866 195.31282,-9.74866 0,0 -23.36224,114.95447 -106.40459,163.20237 -62.31324,36.2001 -140.51423,24.5363 -175.66003,16.4626 v 444.3217 c 2.19841,-1.0889 4.12015,-1.9729 6.5077,-3.2031 11.00144,-5.6687 16.832,-8.915 17.51078,-9.7487 0.66598,-0.8336 3.99588,-3.1678 9.98968,-7.0025 6.00661,-3.8347 10.92463,-7.0026 14.75401,-9.5033 3.82936,-2.5009 11.16639,-6.9881 22.00132,-13.4904 10.83495,-6.5023 19.65761,-12.5045 26.49669,-18.0064 6.82627,-5.502 12.33503,-9.8401 16.4974,-12.9951 4.17516,-3.1678 11.16638,-9.0032 21.00236,-17.5062 9.83597,-8.5031 17.49797,-15.1705 23.0051,-19.9927 5.49431,-4.8351 11.49776,-10.1703 17.99104,-16.0057 6.5061,-5.8354 15.08862,-13.5834 25.75707,-23.2535 10.66845,-9.67 17.41792,-15.746 20.24833,-18.2468 2.8304,-2.5009 8.9139,-8.415 18.25039,-17.7516 9.33649,-9.3366 17.99266,-18.3255 25.99721,-26.9951 8.00454,-8.6698 12.66801,-13.6716 13.99997,-15.0054 1.33196,-1.3339 2.75196,-2.9129 4.25042,-4.7469 1.49845,-1.834 7.67479,-8.8348 18.50974,-20.993 10.82214,-12.171 17.99107,-20.6741 21.48747,-25.5091 3.5092,-4.8351 7.1736,-9.8272 11.003,-14.9957 3.8294,-5.1685 6.5078,-8.8366 8.0062,-11.0039 1.4985,-2.1675 3.3298,-4.8351 5.4943,-8.0029 2.1644,-3.1678 5.0045,-7.1677 8.5009,-11.9898 3.4964,-4.8351 6.9944,-9.6701 10.5035,-14.5052 3.4964,-4.835 7.6605,-11.0039 12.5016,-18.5066 4.8284,-7.4898 8.6545,-13.3236 11.4977,-17.4918 2.8304,-4.1681 6.6615,-10.0035 11.5026,-17.5062 4.8284,-7.4898 9.9111,-15.7493 15.239,-24.7396 5.3406,-9.0032 8.4273,-14.005 9.2597,-15.0054 0.8325,-1.0003 5.3295,-9.0064 13.5005,-23.9989 8.1582,-15.0053 14.2417,-26.1744 18.2504,-33.4975 3.9958,-7.3359 10.8366,-21.1727 20.4933,-41.5004 9.6694,-20.3405 16.0075,-34.4978 19.0044,-42.5007 2.9969,-8.0028 5.1613,-13.3381 6.4933,-16.0057 1.3319,-2.6676 6.0083,-14.49555 14,-35.50299 8.0045,-20.99462 14.6755,-39.98542 20.0033,-56.99145 5.3406,-17.00603 8.1727,-26.3331 8.5057,-28.00036 0.333,-1.66726 2.4975,-9.83686 6.4933,-24.50873 4.0087,-14.65903 7.3354,-27.16193 9.9993,-37.49893 2.6639,-10.32417 5.1757,-20.32615 7.5067,-29.99625 2.3308,-9.65726 4.3288,-18.49699 5.9938,-26.49983 1.6649,-8.00284 3.8438,-17.99201 6.5077,-29.99625 2.6639,-12.00426 4.8283,-22.99378 6.4933,-32.99733 1.6649,-10.00355 4.0055,-25.17887 7.0024,-45.50659 2.9969,-20.32772 5.1614,-39.6648 6.4933,-57.99181 1.332,-18.33983 4.0102,-67.16828 8.0061,-146.50409 3.9958,-79.33581 6.5078,-140.82907 7.5067,-184.49839 l 1.4984,-65.49929 -9.2596,-2.75579 c -6.1603,-1.83398 -13.5758,-3.41308 -22.2463,-4.74688 -8.6705,-1.33381 -17.3315,-2.66762 -26.002,-4.00143 -8.6705,-1.33379 -16.3278,-2.50088 -23.0003,-3.50124 -6.6598,-1.00035 -24.8351,-4.16816 -54.4966,-9.50339 -29.6745,-5.33522 -49.6651,-8.98878 -60.0006,-10.98949 -10.3355,-2.00071 -22.5025,-4.5016 -36.5008,-7.50267 -13.9984,-3.00107 -23.4998,-5.16851 -28.4946,-6.50231 -5.0076,-1.33381 -17.5076,-5.0018 -37.4998,-11.00392 -20.00492,-6.00213 -30.17395,-8.99359 -30.50694,-8.99359 -0.33299,0 -3.49641,-1.00036 -9.49021,-3.00107 -6.0066,-2.00071 -14.5107,-4.83506 -25.51213,-8.50303 -10.98863,-3.66796 -16.99687,-5.66867 -17.99584,-6.00213 -0.99896,-0.33345 -9.33496,-3.50125 -24.99824,-9.50339 -15.66328,-6.00212 -29.49522,-11.48968 -41.49563,-16.491448 -12.0004,-5.001773 -22.50244,-9.50339 -31.50594,-13.504809 -9.00351,-4.001418 -14.83245,-6.669043 -17.49636,-8.00285 -2.67672,-1.333806 -6.67421,-3.166195 -12.00204,-5.487531 -5.34062,-2.334161 -9.16683,-4.168153 -11.49774,-5.501959 -2.33092,-1.333806 -8.00779,-4.001432 -17.01129,-8.00285 -8.9907,-4.001418 -18.49216,-8.503036 -28.49463,-13.504809 C 727.99544,37.996352 722.66598,35.328726 722,34.995274 c -0.66598,-0.320627 -2.41899,-1.245639 -5.24939,-2.74617 -2.8304,-1.500532 -9.00194,-4.668337 -18.50493,-9.503384 -5.66346,-2.885411 -10.88476,-5.678836 -16.25726,-8.503028 z m -59.40983,1.466868 c -2.585,1.292338 -3.12029,1.557316 -6.58455,3.289633 -10.00247,5.001772 -17.99266,9.003212 -23.99927,12.004275 -5.99379,3.001064 -15.16226,7.493063 -27.49566,13.49519 -12.33338,6.002127 -19.74885,9.577131 -22.24626,10.744211 -2.49741,1.167081 -13.83193,6.502331 -34.00337,16.0057 -20.17144,9.503367 -33.07965,15.417353 -38.75326,17.751513 -5.66082,2.334161 -14.83409,6.168871 -27.50046,11.504098 -12.66639,5.33522 -29.32556,11.82312 -49.99647,19.49252 -20.65812,7.66938 -33.1581,12.171 -37.49976,13.50481 -4.32885,1.33379 -16.66234,5.17172 -37.00027,11.49447 -20.32513,6.33558 -37.83438,11.33738 -52.49869,15.00535 -14.66432,3.66796 -33.17255,7.83613 -55.49561,12.50445 -22.33586,4.66832 -42.00635,8.4886 -59.00159,11.48967 -17.00805,3.00107 -31.84056,5.50196 -44.50695,7.50267 -12.666379,2.00071 -24.167385,3.8347 -34.502846,5.50196 -10.322654,1.66726 -15.826614,2.66762 -16.492592,3.00107 -0.665977,0.33345 -8.673776,1.66727 -24.004069,4.00142 -15.330292,2.33416 -24.0777164,4.07999 -26.2421432,5.24706 l -3.2514516,1.75544 v 35.99839 c 0,23.99569 1.1654694,60.49598 3.496391,109.50054 2.3309217,48.99172 3.9958783,82.49093 4.9948443,100.49732 1.0117745,17.99355 2.0123475,36.66854 3.0113145,55.9959 0.998966,19.34019 2.497427,44.50468 4.49536,75.50285 1.997933,30.99816 3.66289,51.83578 4.994844,62.49341 1.344763,10.67045 3.173013,23.34488 5.503935,38.00392 2.330922,14.67186 4.66186,27.5082 6.992782,38.49928 2.343728,11.0039 5.00926,23.5068 8.006159,37.49893 2.9969,14.00497 5.17575,23.67831 6.507706,29.00072 1.331955,5.33522 4.495371,18.00484 9.490204,37.9991 5.007639,20.00709 8.833837,34.66461 11.497747,44.00125 2.676718,9.33664 3.922234,14.25028 3.755739,14.75045 -0.166495,0.50018 0.998974,4.16816 3.496391,11.00391 2.510223,6.83577 5.250998,15.25064 8.260704,25.25419 2.9969,9.99072 5.993821,18.82562 8.99072,26.49501 3.009707,7.66938 6.669411,17.50465 10.998261,29.49608 4.34167,12.00425 8.50565,23.01148 12.50152,33.00218 3.99587,10.0035 8.50565,21.0058 13.50049,32.9973 5.00763,12.0042 9.49982,21.8412 13.49568,29.5105 4.00867,7.6566 7.67317,14.991 11.00307,21.9934 3.3427,7.0025 5.50874,11.3373 6.5077,13.0046 0.99897,1.6672 4.99166,8.4887 11.99724,20.4929 6.99276,12.0043 11.83555,20.4977 14.49945,25.4995 2.66392,5.0017 5.0829,9.2565 7.24733,12.7449 2.16443,3.5012 4.49696,7.5075 7.00719,12.0091 2.49742,4.5016 4.82835,8.4983 6.99278,11.9994 2.16443,3.5013 5.67525,9.0064 10.50358,16.4963 4.82834,7.5026 8.74579,13.4118 11.74269,17.7467 3.00971,4.3348 5.17576,7.6694 6.50771,10.0036 1.33196,2.3342 2.91846,4.9135 4.7499,7.7479 1.83144,2.8343 3.75095,5.4235 5.74887,7.7576 1.99794,2.3342 4.08874,5.2471 6.25317,8.7483 2.16442,3.5013 4.66186,7.336 7.49226,11.5041 2.84321,4.1553 5.67044,7.9884 8.50084,11.4897 2.83041,3.5012 4.92121,6.4285 6.25316,8.7627 1.33195,2.3213 3.41795,5.2423 6.24836,8.7435 2.8304,3.5012 6.17472,8.006 10.0041,13.4952 3.82936,5.5019 9.33333,12.5045 16.49259,21.0075 7.17206,8.5031 13.6686,15.9913 19.50871,22.4936 5.8273,6.5023 13.49732,14.8386 23.0003,25.0089 9.49018,10.1575 15.49844,16.6582 17.99584,19.4925 2.49742,2.8343 8.08143,8.2481 16.75194,16.251 8.67053,8.0028 13.66218,12.6711 14.99414,14.0049 1.33196,1.3338 7.17531,6.488 17.51077,15.4911 10.32266,9.0032 18.15755,16.0057 23.48538,21.0075 5.34062,4.989 9.42617,8.7483 12.25658,11.2492 2.8304,2.5009 8.67215,7.5011 17.49636,14.9909 8.83701,7.5027 14.67556,12.5045 17.50597,15.0054 2.83041,2.5009 8.82585,7.6694 17.99585,15.5055 9.17,7.8233 16.50701,13.6619 22.00133,17.4966 5.49431,3.8347 10.0041,6.8358 13.50048,9.0032 3.49638,2.1675 10.33392,6.334 20.50288,12.49 10.16897,6.1688 17.58442,10.9254 22.24627,14.2599 4.66184,3.3217 7.83966,5.6591 9.50461,6.9929 1.66494,1.3338 5.99063,3.8347 12.9962,7.5027 4.12141,2.1618 8.06949,4.1437 12.07888,6.1897 v -445.3221 c -35.00485,8.0758 -113.43039,19.8995 -175.91458,-16.4 -83.04235,-48.2479 -106.40459,-163.20238 -106.40459,-163.20238 0,0 112.27047,-38.49919 195.31282,9.74867 44.4179,25.80401 71.45542,71.19621 87.00635,107.84131 V 708.30235 C 572.5608,720.23645 466.09154,736.60201 381.36123,687.47763 266.59675,620.94027 235.53098,459.43007 235.53098,459.43007 c 0,0 153.57228,-51.19538 268.324,15.342 59.21129,34.32912 96.47794,93.26466 118.72361,142.30549 z"
                transform="matrix(0.305002,0,0,0.304579,71.11961,22.908069)"/>
    </g>
</svg>
