<svg xmlns="http://www.w3.org/2000/svg" width="30" height="30" viewBox="0 0 30 30" fill="none">
<g clip-path="url(#clip0_4708_1557)">
<path d="M15 17.0112C15 17.0112 12.8259 22.0921 8.76953 24.3809C10.4829 26.2498 12.5366 28.0904 15 29.8264C17.4632 28.0904 19.5168 26.2498 21.2308 24.3809C17.1742 22.0921 15 17.0112 15 17.0112Z" fill="#99A3B1"/>
<path d="M14.9996 5.68164C13.0271 9.94882 7.57146 12.9425 2.37793 14.3168C3.31326 16.6331 4.64646 19.1463 6.5342 21.6758L7.78169 18.0094C10.6407 16.3059 13.7012 14.4242 14.9996 11.6147C14.9991 11.6147 15.0002 11.6147 14.9996 11.6147C16.2981 14.4242 19.3583 16.3059 22.2179 18.0094L23.4651 21.6758C25.3528 19.1463 26.686 16.6331 27.6214 14.3168C22.4275 12.9427 16.9722 9.94882 14.9996 5.68164Z" fill="#99A3B1"/>
<path d="M29.8184 3.53725C29.8184 3.53725 23.1518 0.173828 15.0003 0.173828V0.174407L14.9994 0.173828C6.84787 0.173828 0.181555 3.53725 0.181555 3.53725C0.181555 3.53725 -0.00348349 6.92557 1.43744 11.6621L3.86437 7.83715C8.33918 6.54883 12.8204 4.67904 14.9997 1.29941C17.1793 4.67904 21.6602 6.54883 26.135 7.83715L28.5622 11.6621C30.0035 6.92557 29.8181 3.53725 29.8181 3.53725H29.8184Z" fill="#99A3B1"/>
</g>
<defs>
<clipPath id="clip0_4708_1557">
<rect width="30" height="30" fill="white"/>
</clipPath>
</defs>
</svg>